<svg width="40" height="40" viewBox="0 0 40 40" fill="none" xmlns="http://www.w3.org/2000/svg">
<rect width="40" height="40" fill="black"/>
<path d="M24.0012 9H15.9988C12.1334 9 9 12.1305 9 15.9921V24.0074C9 27.8691 12.1334 31 15.9988 31H24.0012C27.8666 31 31 27.8691 31 24.0074V15.9921C31 12.1305 27.8666 9 24.0012 9Z" fill="#CCFF00"/>
<path fill-rule="evenodd" clip-rule="evenodd" d="M14.3975 23.8614V16.387C14.3975 16.1952 14.4725 16.0111 14.6066 15.8738L16.4472 13.9888C16.7282 13.7011 17.1885 13.6922 17.4803 13.969L19.8409 16.208C19.9049 16.2687 19.9555 16.3381 19.9927 16.4126V16.387C19.9927 16.1952 20.0678 16.0111 20.2019 15.8738L22.0425 13.9888C22.3235 13.7011 22.7837 13.6922 23.0757 13.969L25.4362 16.208C25.7326 16.4891 25.7429 16.9576 25.4591 17.2514L23.2832 19.5047C23.0082 19.7894 23.0082 20.2407 23.2832 20.5251L25.4774 22.7973C25.754 23.0837 25.7523 23.5379 25.4735 23.8223L23.1919 26.1489C22.9142 26.4326 22.4619 26.4445 22.1694 26.1769L20.2314 24.4029C20.0794 24.2638 19.9927 24.0668 19.9927 23.8614V23.6706C19.962 23.7244 19.9239 23.7755 19.8783 23.8223L17.5967 26.1489C17.319 26.4326 16.8666 26.4445 16.574 26.1769L14.6362 24.4029C14.4841 24.2638 14.3975 24.0668 14.3975 23.8614ZM19.9927 22.9454V17.0695C19.9602 17.1347 19.9172 17.1961 19.8639 17.2514L17.688 19.5047C17.413 19.7894 17.413 20.2407 17.688 20.5251L19.8822 22.7973C19.926 22.8427 19.9629 22.893 19.9927 22.9454Z" fill="black"/>
</svg>